<svg version="1.1" id="Layer_1" xmlns="http://www.w3.org/2000/svg" xmlns:xlink="http://www.w3.org/1999/xlink" x="0px" y="0px"
	 width="100%" viewBox="0 0 1024 1024" enable-background="new 0 0 1024 1024" xml:space="preserve">
<path fill="#000000" opacity="1.000000" stroke="none" 
	d="
M869.302002,475.032532 
	C869.963318,487.616028 871.343079,499.757538 871.128357,511.870758 
	C869.344727,612.503479 833.376404,698.519409 759.777100,767.809204 
	C725.378662,800.193481 685.172119,823.463867 640.731384,839.503174 
	C607.306946,851.566406 572.903809,858.346863 537.434570,860.498108 
	C469.972412,864.589783 406.738281,849.662048 347.409027,818.117493 
	C285.115723,784.997070 236.907425,737.328064 203.898361,674.780823 
	C185.306915,639.552856 173.776840,602.047424 168.459732,562.502625 
	C165.630432,541.460327 164.413391,520.399536 164.866974,499.248016 
	C165.403793,474.213715 169.250458,449.573669 175.302689,425.286530 
	C187.216782,377.476044 209.179520,334.708191 239.953629,296.333405 
	C277.930084,248.977386 324.755524,213.368713 380.715637,189.773331 
	C410.183075,177.348480 440.816376,169.165543 472.465576,165.011093 
	C496.781769,161.819183 521.192566,161.754272 545.705994,163.469116 
	C589.779907,166.552322 631.595886,177.706345 671.335449,196.799072 
	C724.961853,222.563629 769.233154,259.609802 804.372925,307.605377 
	C833.830078,347.839233 853.845764,392.267822 863.877258,441.154022 
	C866.148193,452.220612 867.883728,463.371033 869.302002,475.032532 
M492.000854,310.492065 
	C490.867462,310.729279 489.742249,311.019562 488.599487,311.196136 
	C425.816559,320.895264 377.031250,352.639771 343.042267,405.990570 
	C317.140320,446.647614 306.969574,491.520203 313.233612,539.635010 
	C319.808105,590.134155 342.526886,632.094238 380.614410,665.842834 
	C417.786041,698.779968 461.717773,714.908081 510.782257,717.498901 
	C537.654907,718.917969 563.839539,714.239014 589.174438,705.083252 
	C596.953308,702.272034 597.414673,702.397888 601.554626,709.170654 
	C605.425171,715.502686 605.118652,716.694641 598.176758,719.240173 
	C572.962341,728.486267 546.948181,733.923523 520.059753,733.991882 
	C490.636566,734.066711 462.136322,728.601624 434.757538,717.693054 
	C337.634460,678.996094 278.574829,577.229309 299.665741,471.682678 
	C309.705170,421.441650 334.200653,379.676666 372.874664,346.420471 
	C407.285797,316.829926 447.651093,300.441986 492.544434,294.498627 
	C523.772766,290.364380 554.328247,293.366516 584.374573,302.055298 
	C618.061829,311.797058 647.725586,328.869873 673.564819,352.587982 
	C674.726135,353.653961 675.713501,355.686340 677.649170,354.836365 
	C682.735229,352.602875 688.008789,350.616364 692.415710,346.815552 
	C691.730774,345.793152 691.421753,345.205566 690.994751,344.722229 
	C690.224182,343.849701 689.430664,342.986206 688.564392,342.210938 
	C643.577209,301.949493 591.346741,278.632141 530.743164,275.490570 
	C495.834198,273.680969 461.961914,279.421844 429.544525,292.458405 
	C382.480530,311.385101 344.280853,341.631683 316.655396,384.361542 
	C283.306488,435.944183 270.265381,492.381042 280.708435,553.121460 
	C291.193542,614.106384 321.228455,663.937256 370.716125,701.545044 
	C410.970428,732.136047 456.522247,748.887695 506.946564,751.498535 
	C536.774963,753.042969 566.013611,748.681580 594.393982,739.020813 
	C649.704041,720.192932 692.766541,685.436035 726.087830,637.984558 
	C729.684753,632.862244 729.358459,631.533142 724.328613,627.743347 
	C705.033813,613.205627 685.731140,598.678284 666.412048,584.172791 
	C665.120361,583.202881 663.942566,581.876770 662.102661,582.014465 
	C660.521362,582.932495 659.952515,584.556519 659.046326,585.932251 
	C632.491028,626.244568 596.795471,653.458069 548.713013,662.941589 
	C509.636169,670.648804 472.642426,664.688049 438.423645,644.552917 
	C382.563385,611.683472 354.351746,548.490417 366.671143,484.728058 
	C380.116913,415.135437 436.529175,364.181793 512.562866,359.927277 
	C546.568481,358.024445 578.189453,367.000122 606.510498,386.462921 
	C607.838623,387.375641 609.172546,388.794769 611.013367,387.861206 
	C616.151489,385.255341 621.588867,383.176849 626.223755,379.945404 
	C625.776245,377.190704 623.873901,376.251526 622.291382,375.116486 
	C585.176331,348.494995 543.773071,338.041748 498.564148,343.199219 
	C460.862762,347.500183 427.429291,362.134552 400.012054,388.515991 
	C357.196045,429.714417 339.254761,480.123566 347.314789,539.248108 
	C351.529358,570.164124 363.299866,598.252075 383.670593,621.814270 
	C422.838745,667.118713 472.885712,687.841858 532.719788,683.645386 
	C566.793213,681.255676 597.388184,668.939331 624.877380,648.731689 
	C639.076050,638.294067 651.383362,625.950745 662.392151,612.252869 
	C666.484924,607.160339 670.975647,607.070740 675.139099,611.982971 
	C678.177490,615.567749 677.458435,618.864563 674.681152,622.276123 
	C665.091919,634.055420 654.920288,645.249329 643.138550,654.913513 
	C599.104980,691.032471 548.721863,706.115479 492.279083,699.008728 
	C457.746643,694.660706 426.483521,681.516846 399.267242,659.389404 
	C354.620209,623.090698 331.454163,575.900085 329.051758,518.720215 
	C327.883942,490.924957 333.445770,463.962402 344.858673,438.556427 
	C364.481903,394.873596 395.950592,362.484283 439.773682,342.840027 
	C475.929474,326.632782 513.734436,321.666260 552.938171,328.601257 
	C583.140442,333.943909 611.116882,344.842346 634.886169,364.345612 
	C642.656250,370.721161 648.335999,371.282959 656.046875,366.065308 
	C660.116028,363.311859 660.558289,362.499695 656.646240,359.266693 
	C648.807922,352.789062 640.742310,346.615356 632.040710,341.304413 
	C597.430725,320.180359 560.123779,308.575073 519.320435,309.064728 
	C510.485809,309.170776 501.674927,309.433929 492.000854,310.492065 
M741.460327,321.851379 
	C729.275879,341.156006 711.295654,353.336609 691.281982,363.238159 
	C655.315552,381.032074 619.471008,399.072968 583.618225,417.095581 
	C572.449646,422.709869 561.419189,428.672058 551.836060,436.788696 
	C529.578613,455.640137 515.720154,478.732666 516.226624,508.905304 
	C516.383179,518.231262 516.283325,527.562012 516.247070,536.890381 
	C516.240112,538.679993 516.661316,540.569885 515.500183,542.214111 
	C513.740295,543.027832 512.282410,541.834839 510.692902,541.567627 
	C502.198792,540.139709 494.660095,541.809998 489.332062,549.077271 
	C484.466858,555.713318 483.900909,563.019287 487.873627,570.229492 
	C492.018463,577.752136 498.724060,581.243347 507.319702,580.924744 
	C519.405640,580.476746 529.022827,570.888367 530.682129,557.643005 
	C532.677917,541.711304 531.274292,525.703064 531.698425,509.735229 
	C531.980774,499.106781 534.335999,488.952576 538.778137,479.333435 
	C547.865845,459.654480 563.429993,446.613739 582.424255,437.120056 
	C615.940491,420.368011 649.501038,403.702301 682.906921,386.732605 
	C699.496155,378.305573 716.768066,371.005005 731.158325,358.722870 
	C748.324463,344.071442 754.313904,325.214600 752.375183,303.298431 
	C752.310303,302.565735 752.211853,301.579651 750.748352,301.443420 
	C747.574768,307.876190 745.785828,315.054993 741.460327,321.851379 
M396.563080,461.012115 
	C395.763458,463.024048 394.933807,465.024597 394.168976,467.049652 
	C388.520752,482.004333 385.416901,497.412659 386.226868,513.457214 
	C386.856384,525.926941 393.242523,535.543701 402.243713,537.946838 
	C411.471527,540.410461 414.788025,538.073242 414.803589,528.544922 
	C414.813812,522.289856 415.597992,516.282593 417.912170,510.454834 
	C418.963226,507.807983 420.543457,505.584656 423.286682,504.946075 
	C434.963226,502.227936 441.820465,493.218536 449.551453,485.288757 
	C453.342194,481.400543 454.893158,476.053741 458.442047,472.046661 
	C465.300964,464.302307 468.714508,455.023560 470.613892,445.058563 
	C471.159912,442.193848 470.681152,439.502441 469.503510,436.790680 
	C467.711548,432.664398 463.118835,428.396515 464.897095,424.432800 
	C466.709198,420.393646 472.452057,418.807373 476.574829,416.303986 
	C477.566315,415.701874 478.667297,415.278931 479.722076,414.782379 
	C483.018585,413.230469 486.184998,411.318085 485.744324,407.123413 
	C485.261780,402.530212 482.261597,399.400513 477.899109,398.428406 
	C474.334778,397.634155 470.741119,396.944916 467.255829,395.859558 
	C464.949646,395.141357 463.077759,395.988770 461.033783,396.787079 
	C456.704437,398.477936 454.194092,402.378784 450.664429,404.956543 
	C445.270020,408.896179 440.449951,414.107452 433.110107,414.696930 
	C432.218231,414.768555 431.290894,415.542480 430.550354,416.186737 
	C416.299072,428.585052 404.958893,443.213562 396.563080,461.012115 
M675.262268,472.674530 
	C677.824341,471.471466 680.369568,470.230835 682.953857,469.077515 
	C684.921204,468.199524 687.724487,467.735413 688.087036,465.518677 
	C689.118958,459.210052 689.118103,452.826752 687.998962,446.654053 
	C685.343018,446.276215 683.827454,447.454620 682.195190,448.218964 
	C674.355774,451.889893 666.772156,456.299194 658.631287,459.081604 
	C650.100342,461.997253 646.933777,466.840973 648.021423,475.677917 
	C648.694641,481.147156 648.462708,486.835724 647.427124,492.748962 
	C645.291016,492.086365 643.744507,491.593414 642.190125,491.126678 
	C633.122131,488.403687 623.606567,492.337219 618.702515,500.829773 
	C614.161804,508.693085 615.826843,518.610657 622.753052,524.956238 
	C634.648560,535.854553 653.916382,529.277893 658.636658,512.745789 
	C660.319336,506.852570 659.603027,500.837372 659.744629,494.868835 
	C660.167419,477.053741 657.254089,481.685272 672.363037,474.130188 
	C673.107727,473.757843 673.840027,473.360718 675.262268,472.674530 
M664.763123,273.190094 
	C664.022888,273.854919 663.241089,274.479309 662.548767,275.190735 
	C655.158569,282.784851 655.442993,293.185944 663.219849,300.293762 
	C671.038208,307.439484 682.272278,307.105255 688.991821,299.527039 
	C694.784363,292.994385 695.232361,283.599091 690.060730,277.112396 
	C683.549805,268.945831 674.712708,267.384003 664.763123,273.190094 
z"/>
<path fill="#000000" opacity="1.000000" stroke="none" 
	d="
M673.161316,650.161194 
	C678.361816,644.300781 683.338806,638.714844 688.271423,633.089966 
	C692.868530,627.847656 700.028503,628.723694 703.471069,634.857422 
	C704.826416,637.272278 703.668518,638.957214 702.423889,640.762024 
	C697.017639,648.601440 690.387085,655.385559 683.849121,662.244019 
	C669.071045,677.746765 652.359497,690.841736 634.063843,701.926575 
	C626.875916,706.281555 619.341492,703.438660 616.602234,695.468140 
	C615.522522,692.326416 618.403015,691.863892 620.058472,690.936218 
	C631.256409,684.662048 641.870361,677.546509 651.954346,669.606079 
	C659.423462,663.724792 666.213867,657.123840 673.161316,650.161194 
z"/>
</svg>